<svg width="28" height="28" viewBox="0 0 28 28" fill="none" xmlns="http://www.w3.org/2000/svg">
<path d="M27.3332 5.62665L21.1998 0.47998L19.4798 2.51998L25.6132 7.66665L27.3332 5.62665ZM8.5065 2.51998L6.79984 0.47998L0.666504 5.61331L2.3865 7.65331L8.5065 2.51998ZM14.6665 8.66665H12.6665V16.6666L18.9998 20.4666L19.9998 18.8266L14.6665 15.6666V8.66665ZM13.9998 3.33331C7.37317 3.33331 1.99984 8.70665 1.99984 15.3333C1.99984 21.96 7.35984 27.3333 13.9998 27.3333C20.6265 27.3333 25.9998 21.96 25.9998 15.3333C25.9998 8.70665 20.6265 3.33331 13.9998 3.33331ZM13.9998 24.6666C8.83984 24.6666 4.6665 20.4933 4.6665 15.3333C4.6665 10.1733 8.83984 5.99998 13.9998 5.99998C19.1598 5.99998 23.3332 10.1733 23.3332 15.3333C23.3332 20.4933 19.1598 24.6666 13.9998 24.6666Z" fill="#20484F"/>
</svg>
