<svg width="30" height="24" viewBox="0 0 30 24" fill="none" xmlns="http://www.w3.org/2000/svg">
<path d="M0.333496 8H3.00016V5.33333H0.333496V8ZM0.333496 13.3333H3.00016V10.6667H0.333496V13.3333ZM0.333496 2.66667H3.00016V0C1.5335 0 0.333496 1.2 0.333496 2.66667ZM11.0002 24H13.6668V21.3333H11.0002V24ZM0.333496 18.6667H3.00016V16H0.333496V18.6667ZM3.00016 24V21.3333H0.333496C0.333496 22.8 1.5335 24 3.00016 24ZM27.0002 0H16.3335V8H29.6668V2.66667C29.6668 1.2 28.4668 0 27.0002 0ZM27.0002 18.6667H29.6668V16H27.0002V18.6667ZM11.0002 2.66667H13.6668V0H11.0002V2.66667ZM5.66683 24H8.3335V21.3333H5.66683V24ZM5.66683 2.66667H8.3335V0H5.66683V2.66667ZM27.0002 24C28.4668 24 29.6668 22.8 29.6668 21.3333H27.0002V24ZM27.0002 13.3333H29.6668V10.6667H27.0002V13.3333ZM16.3335 24H19.0002V21.3333H16.3335V24ZM21.6668 24H24.3335V21.3333H21.6668V24Z" fill="#20484F"/>
</svg>
