<svg width="28" height="28" viewBox="0 0 28 28" fill="none" xmlns="http://www.w3.org/2000/svg">
<path d="M20.1198 8.1065L11.3332 16.8932L6.5465 12.1198L4.6665 13.9998L11.3332 20.6665L21.9998 9.99984L20.1198 8.1065ZM13.9998 0.666504C6.63984 0.666504 0.666504 6.63984 0.666504 13.9998C0.666504 21.3598 6.63984 27.3332 13.9998 27.3332C21.3598 27.3332 27.3332 21.3598 27.3332 13.9998C27.3332 6.63984 21.3598 0.666504 13.9998 0.666504ZM13.9998 24.6665C8.1065 24.6665 3.33317 19.8932 3.33317 13.9998C3.33317 8.1065 8.1065 3.33317 13.9998 3.33317C19.8932 3.33317 24.6665 8.1065 24.6665 13.9998C24.6665 19.8932 19.8932 24.6665 13.9998 24.6665Z" fill="#20484F"/>
</svg>
