<svg width="137" height="26" viewBox="0 0 137 26" fill="none" xmlns="http://www.w3.org/2000/svg">
<path d="M10.7312 4.10347C9.12477 4.10347 8.64282 4.79637 8.64282 6.33966V8.89081H12.9482L12.5305 13.0482H8.64282V25.615H3.46998V13.0482H0V8.92231H3.46998V6.43415C3.46998 2.21373 5.20497 0.0090332 9.99226 0.0090332C10.9883 0.0090332 12.0164 0.0720245 13.0124 0.198007V4.10347" fill="#20484F"/>
<path d="M13.3017 16.7323C13.3017 12.071 15.5507 8.54346 20.3059 8.54346C22.8763 8.54346 24.4506 9.83478 25.2217 11.4726V8.9214H30.1697V25.6456H25.1896V23.1259C24.4827 24.7322 22.8441 25.9921 20.2738 25.9921C15.5507 25.9921 13.2695 22.496 13.2695 17.8032L13.3017 16.7323ZM18.4745 17.8662C18.4745 20.3543 19.4063 22.0236 21.816 22.0236C23.9365 22.0236 24.9968 20.5118 24.9968 18.1181V16.4174C24.9968 14.0237 23.9044 12.5119 21.816 12.5119C19.4063 12.5119 18.4745 14.1497 18.4745 16.6693V17.8662Z" fill="#20484F"/>
<path d="M40.9011 8.54346C42.8931 8.54346 44.8209 8.9529 45.849 9.6773L44.6924 13.2678C43.6321 12.7639 42.4433 12.5119 41.2545 12.5119C38.4593 12.5119 37.2384 14.0867 37.2384 16.7953V17.7717C37.2384 20.4803 38.4593 22.0551 41.2545 22.0551C42.4433 22.0551 43.6321 21.7716 44.6924 21.2677L45.849 24.8582C44.8209 25.5511 42.9253 25.9921 40.9011 25.9921C34.8287 25.9921 32.0977 22.811 32.0977 17.6772V16.8898C32.0977 11.756 34.8287 8.54346 40.9011 8.54346Z" fill="#20484F"/>
<path d="M46.5234 17.8977V16.4174C46.5234 11.6615 49.2866 8.54346 54.9092 8.54346C60.2106 8.54346 62.556 11.693 62.556 16.3544V19.0315H51.6963C51.7927 21.3307 52.8529 22.3386 55.7124 22.3386C57.5759 22.3386 59.4394 21.9921 61.2066 21.3307L62.1383 24.7952C60.7889 25.4881 57.9936 26.0236 55.5197 26.0236C48.9653 25.9921 46.5234 22.811 46.5234 17.8977ZM51.6963 15.693H57.9294V15.2835C57.9294 13.4568 57.1904 12.008 54.9092 12.008C52.5959 12.008 51.6963 13.4568 51.6963 15.693Z" fill="#20484F"/>
<path d="M81.7055 17.8031C81.7055 22.4645 79.4243 25.992 74.6691 25.992C72.0988 25.992 70.2995 24.7322 69.5927 23.1259V25.6455H64.709V0.511984L69.8818 0.0710449V11.252C70.6208 9.77171 72.2915 8.57487 74.7012 8.57487C79.4243 8.57487 81.7376 12.0709 81.7376 16.7637L81.7055 17.8031ZM76.5326 16.6378C76.5326 14.2756 75.6009 12.5118 73.1269 12.5118C71.0064 12.5118 69.8818 13.9921 69.8818 16.3858V18.1496C69.8818 20.5432 71.0385 22.0235 73.1269 22.0235C75.6009 22.0235 76.5326 20.2598 76.5326 17.8976V16.6378Z" fill="#20484F"/>
<path d="M83.4082 17.6772V16.8268C83.4082 12.008 86.2035 8.54346 91.8905 8.54346C97.5774 8.54346 100.373 12.008 100.373 16.8268V17.6772C100.373 22.496 97.5774 25.9606 91.8905 25.9606C86.2035 25.9606 83.4082 22.5275 83.4082 17.6772ZM95.232 16.4804C95.232 14.2757 94.3002 12.5119 91.8905 12.5119C89.4807 12.5119 88.549 14.2757 88.549 16.4804V18.0551C88.549 20.2598 89.4807 22.0236 91.8905 22.0236C94.3002 22.0236 95.232 20.2598 95.232 18.0551V16.4804Z" fill="#20484F"/>
<path d="M102.14 17.6772V16.8268C102.14 12.008 104.935 8.54346 110.622 8.54346C116.309 8.54346 119.104 12.008 119.104 16.8268V17.6772C119.104 22.496 116.309 25.9606 110.622 25.9606C104.935 25.9606 102.14 22.5275 102.14 17.6772ZM113.963 16.4804C113.963 14.2757 113.032 12.5119 110.622 12.5119C108.212 12.5119 107.28 14.2757 107.28 16.4804V18.0551C107.28 20.2598 108.212 22.0236 110.622 22.0236C113.032 22.0236 113.963 20.2598 113.963 18.0551V16.4804Z" fill="#20484F"/>
<path d="M126.204 16.8897L131.313 8.88983H136.775L131.441 17.1732L137 25.6455H131.506L126.204 17.4567V25.6455H121.063V0.511986L126.204 0.0395508" fill="#20484F"/>
</svg>
