<svg width="25" height="28" viewBox="0 0 25 28" fill="none" xmlns="http://www.w3.org/2000/svg">
<path d="M20.7465 3.95984C20.6398 3.95984 20.5331 3.93317 20.4398 3.87984C17.8798 2.55984 15.6665 1.99984 13.0132 1.99984C10.3731 1.99984 7.86648 2.6265 5.58648 3.87984C5.26648 4.05317 4.86648 3.93317 4.67982 3.61317C4.50648 3.29317 4.62648 2.87984 4.94648 2.7065C7.42648 1.35984 10.1465 0.666504 13.0132 0.666504C15.8531 0.666504 18.3332 1.29317 21.0532 2.69317C21.3865 2.8665 21.5065 3.2665 21.3331 3.5865C21.2131 3.8265 20.9865 3.95984 20.7465 3.95984ZM1.66648 10.9598C1.53315 10.9598 1.39982 10.9198 1.27982 10.8398C0.973151 10.6265 0.906484 10.2132 1.11982 9.9065C2.43982 8.03984 4.11982 6.57317 6.11982 5.5465C10.3065 3.3865 15.6665 3.37317 19.8665 5.53317C21.8665 6.55984 23.5465 8.01317 24.8665 9.8665C25.0798 10.1598 25.0131 10.5865 24.7065 10.7998C24.3998 11.0132 23.9865 10.9465 23.7731 10.6398C22.5731 8.95984 21.0532 7.63984 19.2531 6.71984C15.4265 4.75984 10.5331 4.75984 6.71982 6.73317C4.90648 7.6665 3.38648 8.99984 2.18648 10.6798C2.07982 10.8665 1.87982 10.9598 1.66648 10.9598ZM9.99982 27.0532C9.82648 27.0532 9.65315 26.9865 9.53315 26.8532C8.37315 25.6932 7.74648 24.9465 6.85315 23.3332C5.93315 21.6932 5.45315 19.6932 5.45315 17.5465C5.45315 13.5865 8.83982 10.3598 12.9998 10.3598C17.1598 10.3598 20.5465 13.5865 20.5465 17.5465C20.5465 17.9198 20.2531 18.2132 19.8798 18.2132C19.5065 18.2132 19.2131 17.9198 19.2131 17.5465C19.2131 14.3198 16.4265 11.6932 12.9998 11.6932C9.57315 11.6932 6.78648 14.3198 6.78648 17.5465C6.78648 19.4665 7.21315 21.2398 8.02648 22.6798C8.87982 24.2132 9.46648 24.8665 10.4931 25.9065C10.7465 26.1732 10.7465 26.5865 10.4931 26.8532C10.3465 26.9865 10.1732 27.0532 9.99982 27.0532ZM19.5598 24.5865C17.9731 24.5865 16.5731 24.1865 15.4265 23.3998C13.4398 22.0532 12.2531 19.8665 12.2531 17.5465C12.2531 17.1732 12.5465 16.8798 12.9198 16.8798C13.2931 16.8798 13.5865 17.1732 13.5865 17.5465C13.5865 19.4265 14.5465 21.1998 16.1731 22.2932C17.1198 22.9332 18.2265 23.2398 19.5598 23.2398C19.8798 23.2398 20.4131 23.1998 20.9465 23.1065C21.3065 23.0398 21.6532 23.2798 21.7198 23.6532C21.7865 24.0132 21.5465 24.3598 21.1731 24.4265C20.4131 24.5732 19.7465 24.5865 19.5598 24.5865ZM16.8798 27.3332C16.8265 27.3332 16.7598 27.3198 16.7065 27.3065C14.5865 26.7198 13.1998 25.9332 11.7465 24.5065C9.87982 22.6532 8.85315 20.1865 8.85315 17.5465C8.85315 15.3865 10.6931 13.6265 12.9598 13.6265C15.2265 13.6265 17.0665 15.3865 17.0665 17.5465C17.0665 18.9732 18.3065 20.1332 19.8398 20.1332C21.3731 20.1332 22.6131 18.9732 22.6131 17.5465C22.6131 12.5198 18.2798 8.43984 12.9465 8.43984C9.15982 8.43984 5.69315 10.5465 4.13315 13.8132C3.61315 14.8932 3.34648 16.1598 3.34648 17.5465C3.34648 18.5865 3.43982 20.2265 4.23982 22.3598C4.37315 22.7065 4.19982 23.0932 3.85315 23.2132C3.50648 23.3465 3.11982 23.1598 2.99982 22.8265C2.34648 21.0798 2.02648 19.3465 2.02648 17.5465C2.02648 15.9465 2.33315 14.4932 2.93315 13.2265C4.70648 9.5065 8.63982 7.09317 12.9465 7.09317C19.0131 7.09317 23.9465 11.7732 23.9465 17.5332C23.9465 19.6932 22.1065 21.4532 19.8398 21.4532C17.5731 21.4532 15.7331 19.6932 15.7331 17.5332C15.7331 16.1065 14.4931 14.9465 12.9598 14.9465C11.4265 14.9465 10.1865 16.1065 10.1865 17.5332C10.1865 19.8132 11.0665 21.9465 12.6798 23.5465C13.9465 24.7998 15.1598 25.4932 17.0398 26.0132C17.3998 26.1065 17.5998 26.4798 17.5065 26.8265C17.4398 27.1332 17.1598 27.3332 16.8798 27.3332Z" fill="#20484F"/>
</svg>
