<svg width="154" height="228" viewBox="0 0 154 228" fill="none" xmlns="http://www.w3.org/2000/svg">
<path d="M0.62831 219.49C0.668829 219.301 0.702595 219.058 0.729608 218.761C0.756621 218.464 0.790387 218.072 0.830906 217.586C0.884931 217.1 0.938957 216.499 0.992982 215.783C1.06051 215.067 1.14831 214.196 1.25636 213.169C1.36441 212.143 1.48596 210.941 1.62103 209.563C1.7696 208.172 1.95869 206.558 2.18829 204.721C2.2018 204.586 2.26258 204.505 2.37063 204.478C2.49219 204.451 2.60024 204.438 2.69478 204.438C2.84335 204.438 2.96491 204.492 3.05945 204.6C3.154 204.708 3.23504 204.829 3.30257 204.964C3.38361 205.099 3.45789 205.241 3.52542 205.39C3.59296 205.538 3.66724 205.66 3.74828 205.754C3.88334 206.065 4.01841 206.423 4.15347 206.828C4.30204 207.233 4.45736 207.666 4.61944 208.125C4.78151 208.584 4.94359 209.05 5.10567 209.523C5.26774 209.982 5.42982 210.434 5.5919 210.88C5.75397 211.312 5.90254 211.717 6.03761 212.096C6.18618 212.46 6.32124 212.764 6.4428 213.007C6.59137 212.994 6.80071 212.94 7.07084 212.845C7.34097 212.737 7.63136 212.636 7.942 212.541C8.25265 212.447 8.55654 212.372 8.85368 212.318C9.15082 212.264 9.40069 212.264 9.60328 212.318C9.80588 212.359 9.93419 212.474 9.98821 212.663C10.0557 212.852 10.0085 213.149 9.8464 213.554C9.75185 213.554 9.66406 213.541 9.58302 213.514C9.50199 213.473 9.42095 213.439 9.33991 213.412C9.25887 213.372 9.17108 213.338 9.07654 213.311C8.9955 213.271 8.90095 213.25 8.7929 213.25C8.72537 213.25 8.57005 213.291 8.32693 213.372C8.09732 213.439 7.84746 213.521 7.57733 213.615C7.3072 213.696 7.07084 213.784 6.86825 213.878C6.66565 213.959 6.56435 214.02 6.56435 214.061L7.96226 219.551L7.43551 220.321C7.20591 219.929 7.01006 219.484 6.84799 218.984C6.69942 218.471 6.5576 217.964 6.42254 217.464C6.28747 216.951 6.14566 216.478 5.99709 216.046C5.86202 215.601 5.68644 215.229 5.47034 214.932C5.18671 215.067 4.84905 215.182 4.45736 215.276C4.06568 215.371 3.6875 215.492 3.32283 215.641C2.95816 215.776 2.64076 215.965 2.37063 216.208C2.11401 216.438 1.95869 216.755 1.90466 217.16C1.87765 217.323 1.85064 217.539 1.82362 217.809C1.81012 218.079 1.78986 218.336 1.76284 218.579C1.72233 218.876 1.68856 219.18 1.66155 219.49H0.62831ZM2.95816 207.557L2.91764 207.902C2.90413 208.131 2.88387 208.402 2.85686 208.712C2.82985 209.009 2.79608 209.32 2.75556 209.644C2.72855 209.955 2.70829 210.218 2.69478 210.434C2.62725 211.191 2.55297 211.94 2.47193 212.683C2.4044 213.412 2.37063 214.162 2.37063 214.932C2.62725 214.932 2.89738 214.898 3.18101 214.831C3.47815 214.763 3.76178 214.675 4.03191 214.567C4.30204 214.446 4.54515 214.304 4.76126 214.142C4.99086 213.966 5.16645 213.77 5.288 213.554C5.17995 213.082 5.05839 212.595 4.92333 212.096C4.80177 211.582 4.66671 211.069 4.51814 210.556C4.36957 210.029 4.20749 209.516 4.03191 209.016C3.85633 208.516 3.66724 208.03 3.46464 207.557C3.45114 207.544 3.40387 207.517 3.32283 207.476C3.24179 207.422 3.12023 207.449 2.95816 207.557ZM13.169 216.31C13.0339 216.62 12.8583 216.978 12.6422 217.383C12.4396 217.789 12.1965 218.173 11.9129 218.538C11.6427 218.903 11.3253 219.213 10.9607 219.47C10.596 219.727 10.1908 219.855 9.7451 219.855C9.5425 219.855 9.38043 219.835 9.25887 219.794C9.15082 219.74 9.04952 219.666 8.95498 219.571C8.87394 219.477 8.7929 219.362 8.71186 219.227C8.64433 219.092 8.55654 218.943 8.44849 218.781C8.40797 218.119 8.38096 217.41 8.36745 216.654C8.36745 215.884 8.40797 215.121 8.48901 214.365C8.57005 213.595 8.70511 212.872 8.8942 212.197C9.0968 211.522 9.37368 210.948 9.72484 210.475C10.0895 210.002 10.542 209.664 11.0822 209.462C11.6225 209.259 12.2775 209.246 13.0474 209.421C13.0879 209.043 13.0947 208.537 13.0677 207.902C13.0407 207.267 13.0001 206.599 12.9461 205.896C12.8921 205.194 12.8381 204.519 12.784 203.87C12.73 203.208 12.6962 202.668 12.6827 202.249C12.6827 202.128 12.7368 202.04 12.8448 201.986C12.9664 201.919 13.0947 201.878 13.2297 201.865C13.3648 201.851 13.4931 201.851 13.6147 201.865C13.7497 201.878 13.8375 201.898 13.878 201.925C13.851 203.587 13.8443 205.221 13.8578 206.828C13.8713 208.422 13.8848 210.016 13.8983 211.609C13.9253 213.19 13.9523 214.763 13.9793 216.33C14.0064 217.897 14.0199 219.463 14.0199 221.03C14.0199 221.179 14.0064 221.334 13.9793 221.496C13.9658 221.672 13.851 221.759 13.6349 221.759C13.5539 221.759 13.4729 221.732 13.3918 221.678C13.3108 221.638 13.2568 221.57 13.2297 221.476L13.169 216.31ZM12.2978 210.434C11.8791 210.407 11.4874 210.576 11.1227 210.941C10.7716 211.292 10.4609 211.751 10.1908 212.318C9.93419 212.886 9.72484 213.514 9.56276 214.203C9.40069 214.878 9.29939 215.533 9.25887 216.168C9.23186 216.789 9.27238 217.343 9.38043 217.829C9.50199 218.315 9.71133 218.646 10.0085 218.822C10.3056 218.822 10.5825 218.707 10.8391 218.477C11.0957 218.234 11.3321 217.93 11.5482 217.566C11.7643 217.201 11.9534 216.796 12.1155 216.35C12.2775 215.891 12.4126 215.452 12.5207 215.033C12.6422 214.615 12.73 214.236 12.784 213.899C12.8516 213.548 12.8853 213.284 12.8853 213.109C12.8853 212.974 12.8921 212.757 12.9056 212.46C12.9191 212.163 12.9123 211.866 12.8853 211.569C12.8583 211.272 12.7975 211.008 12.703 210.779C12.622 210.549 12.4869 210.434 12.2978 210.434ZM19.7331 216.31C19.598 216.62 19.4224 216.978 19.2063 217.383C19.0037 217.789 18.7606 218.173 18.477 218.538C18.2068 218.903 17.8894 219.213 17.5248 219.47C17.1601 219.727 16.7549 219.855 16.3092 219.855C16.1066 219.855 15.9445 219.835 15.823 219.794C15.7149 219.74 15.6136 219.666 15.5191 219.571C15.438 219.477 15.357 219.362 15.276 219.227C15.2084 219.092 15.1206 218.943 15.0126 218.781C14.9721 218.119 14.945 217.41 14.9315 216.654C14.9315 215.884 14.9721 215.121 15.0531 214.365C15.1341 213.595 15.2692 212.872 15.4583 212.197C15.6609 211.522 15.9378 210.948 16.2889 210.475C16.6536 210.002 17.1061 209.664 17.6463 209.462C18.1866 209.259 18.8416 209.246 19.6115 209.421C19.652 209.043 19.6588 208.537 19.6318 207.902C19.6047 207.267 19.5642 206.599 19.5102 205.896C19.4562 205.194 19.4021 204.519 19.3481 203.87C19.2941 203.208 19.2603 202.668 19.2468 202.249C19.2468 202.128 19.3008 202.04 19.4089 201.986C19.5305 201.919 19.6588 201.878 19.7938 201.865C19.9289 201.851 20.0572 201.851 20.1788 201.865C20.3138 201.878 20.4016 201.898 20.4421 201.925C20.4151 203.587 20.4084 205.221 20.4219 206.828C20.4354 208.422 20.4489 210.016 20.4624 211.609C20.4894 213.19 20.5164 214.763 20.5434 216.33C20.5704 217.897 20.584 219.463 20.584 221.03C20.584 221.179 20.5704 221.334 20.5434 221.496C20.5299 221.672 20.4151 221.759 20.199 221.759C20.118 221.759 20.0369 221.732 19.9559 221.678C19.8749 221.638 19.8208 221.57 19.7938 221.476L19.7331 216.31ZM18.8619 210.434C18.4432 210.407 18.0515 210.576 17.6868 210.941C17.3357 211.292 17.025 211.751 16.7549 212.318C16.4983 212.886 16.2889 213.514 16.1269 214.203C15.9648 214.878 15.8635 215.533 15.823 216.168C15.7959 216.789 15.8365 217.343 15.9445 217.829C16.0661 218.315 16.2754 218.646 16.5726 218.822C16.8697 218.822 17.1466 218.707 17.4032 218.477C17.6598 218.234 17.8962 217.93 18.1123 217.566C18.3284 217.201 18.5175 216.796 18.6796 216.35C18.8416 215.891 18.9767 215.452 19.0847 215.033C19.2063 214.615 19.2941 214.236 19.3481 213.899C19.4157 213.548 19.4494 213.284 19.4494 213.109C19.4494 212.974 19.4562 212.757 19.4697 212.46C19.4832 212.163 19.4764 211.866 19.4494 211.569C19.4224 211.272 19.3616 211.008 19.2671 210.779C19.186 210.549 19.051 210.434 18.8619 210.434ZM36.4066 219.936L31.1797 211.569C31.1662 211.555 31.1527 211.508 31.1392 211.427C31.1257 211.333 31.1189 211.258 31.1189 211.204C31.1189 211.029 31.1459 210.88 31.1999 210.758C31.2675 210.623 31.4296 210.556 31.6862 210.556C31.7402 210.556 31.8347 210.59 31.9698 210.657C32.1049 210.711 32.1859 210.765 32.2129 210.819C32.5101 211.292 32.814 211.819 33.1246 212.4C33.4488 212.98 33.7797 213.561 34.1173 214.142C34.4685 214.723 34.8332 215.283 35.2113 215.823C35.5895 216.35 35.9879 216.803 36.4066 217.181L36.8929 209.239C36.9064 209.239 36.9401 209.239 36.9942 209.239C37.0617 209.226 37.109 209.219 37.136 209.219C37.2575 209.219 37.3791 209.239 37.5007 209.28C37.6222 209.307 37.71 209.394 37.764 209.543C37.7775 210.029 37.7775 210.63 37.764 211.346C37.764 212.062 37.7505 212.798 37.7235 213.554C37.71 214.311 37.6898 215.04 37.6627 215.742C37.6492 216.431 37.6357 216.985 37.6222 217.404C37.6087 217.674 37.5817 218.079 37.5412 218.619C37.5142 219.159 37.4736 219.767 37.4196 220.443C37.3791 221.131 37.3251 221.854 37.2575 222.61C37.2035 223.367 37.1495 224.083 37.0955 224.758C37.0414 225.433 36.9942 226.041 36.9537 226.581C36.9131 227.135 36.8794 227.533 36.8524 227.776H35.7989L36.4066 219.936ZM38.7162 217.242C38.6217 216.62 38.5744 216.019 38.5744 215.438C38.5744 214.844 38.6082 214.243 38.6757 213.635C38.7568 213.028 38.8648 212.4 38.9999 211.751C39.1484 211.089 39.3173 210.38 39.5064 209.624C39.5064 209.475 39.5469 209.34 39.6279 209.219C39.7089 209.084 39.817 208.976 39.9521 208.895C40.0871 208.8 40.2289 208.726 40.3775 208.672C40.5261 208.618 40.6679 208.591 40.803 208.591C41.1001 208.591 41.3702 208.685 41.6133 208.874C41.8565 209.063 42.0726 209.293 42.2617 209.563C42.4642 209.833 42.6331 210.124 42.7681 210.434C42.9167 210.731 43.0383 210.988 43.1328 211.204C43.2409 211.677 43.3151 212.217 43.3557 212.825C43.4097 213.419 43.4164 214.027 43.3759 214.648C43.3354 215.27 43.2409 215.884 43.0923 216.492C42.9437 217.086 42.7344 217.633 42.4642 218.133C42.1941 218.633 41.843 219.051 41.4107 219.389C40.9921 219.727 40.4923 219.936 39.9115 220.017C39.6009 220.017 39.3645 219.916 39.2025 219.713C39.0404 219.497 38.9188 219.24 38.8378 218.943C38.7703 218.633 38.7297 218.322 38.7162 218.011C38.7162 217.701 38.7162 217.444 38.7162 217.242ZM39.7495 217.181C39.7495 217.316 39.7495 217.444 39.7495 217.566C39.763 217.687 39.7765 217.809 39.79 217.93C39.817 218.038 39.844 218.16 39.871 218.295C39.9115 218.417 39.9588 218.558 40.0128 218.72H40.1344C40.4586 218.72 40.7354 218.612 40.965 218.396C41.1946 218.18 41.3905 217.903 41.5526 217.566C41.7146 217.215 41.8497 216.83 41.9578 216.411C42.0658 215.979 42.1468 215.56 42.2009 215.155C42.2684 214.736 42.3089 214.351 42.3224 214C42.3494 213.635 42.3629 213.345 42.3629 213.129V212.724C42.3629 212.548 42.3562 212.352 42.3427 212.136C42.3292 211.907 42.3022 211.677 42.2617 211.447C42.2346 211.204 42.1874 210.988 42.1198 210.799C42.0523 210.596 41.9645 210.434 41.8565 210.313C41.7484 210.191 41.6066 210.13 41.431 210.13C41.1339 210.036 40.8772 210.056 40.6611 210.191C40.4586 210.326 40.2897 210.556 40.1547 210.88C40.0331 211.191 39.9386 211.576 39.871 212.035C39.8035 212.494 39.763 213.001 39.7495 213.554C39.736 214.108 39.7292 214.696 39.7292 215.317C39.7427 215.938 39.7495 216.559 39.7495 217.181ZM49.4133 217.667C49.3592 217.829 49.2242 218.052 49.0081 218.336C48.8055 218.606 48.5624 218.883 48.2787 219.166C47.9951 219.436 47.698 219.679 47.3873 219.896C47.0902 220.098 46.8268 220.199 46.5972 220.199C46.165 220.199 45.8071 219.997 45.5234 219.592C45.2533 219.186 45.044 218.666 44.8954 218.032C44.7468 217.397 44.6455 216.695 44.5915 215.925C44.5375 215.141 44.5037 214.378 44.4902 213.635C44.4767 212.892 44.4699 212.217 44.4699 211.609C44.4699 211.002 44.4497 210.542 44.4092 210.232C44.4632 210.097 44.5307 210.016 44.6118 209.989C44.7063 209.962 44.8144 209.948 44.9359 209.948C45.044 209.948 45.1385 209.962 45.2195 209.989C45.3141 210.016 45.3951 210.097 45.4627 210.232C45.4627 210.38 45.4627 210.63 45.4627 210.981C45.4762 211.333 45.4964 211.731 45.5234 212.177C45.5504 212.609 45.5775 213.068 45.6045 213.554C45.6315 214.027 45.6517 214.479 45.6653 214.912C45.6923 215.344 45.7125 215.736 45.726 216.087C45.753 216.424 45.7733 216.674 45.7868 216.836C45.8003 216.931 45.8138 217.086 45.8273 217.302C45.8543 217.518 45.8881 217.748 45.9286 217.991C45.9827 218.221 46.0434 218.43 46.111 218.619C46.192 218.808 46.2933 218.91 46.4149 218.923C46.6175 218.923 46.82 218.835 47.0226 218.66C47.2387 218.484 47.4481 218.261 47.6507 217.991C47.8533 217.721 48.0424 217.424 48.218 217.1C48.3935 216.776 48.5489 216.465 48.6839 216.168C48.8325 215.857 48.9405 215.58 49.0081 215.337C49.0891 215.094 49.1364 214.918 49.1499 214.81C49.1769 214.581 49.2039 214.257 49.2309 213.838C49.2579 213.406 49.2782 212.947 49.2917 212.46C49.3052 211.974 49.312 211.515 49.312 211.083C49.3255 210.65 49.3322 210.32 49.3322 210.09L50.4465 210.151C50.46 211.245 50.4533 212.237 50.4262 213.129C50.3992 214.007 50.3925 214.837 50.406 215.621C50.4195 216.391 50.4803 217.14 50.5883 217.87C50.6964 218.599 50.8922 219.355 51.1758 220.139C51.1353 220.179 51.0543 220.233 50.9327 220.301C50.8112 220.382 50.7234 220.422 50.6694 220.422C50.3317 220.422 50.1021 220.307 49.9805 220.078C49.8725 219.862 49.7982 219.605 49.7577 219.308C49.7307 218.997 49.7037 218.693 49.6766 218.396C49.6631 218.086 49.5753 217.843 49.4133 217.667ZM52.3104 210.252V210.09C52.3104 209.955 52.3577 209.86 52.4522 209.806C52.5602 209.752 52.6818 209.725 52.8169 209.725C52.9249 209.725 53.0262 209.739 53.1208 209.766C53.2153 209.779 53.2896 209.854 53.3436 209.989C53.3841 210.191 53.4247 210.475 53.4652 210.84C53.5057 211.191 53.553 211.582 53.607 212.015C53.661 212.447 53.715 212.906 53.7691 213.392C53.8366 213.865 53.8974 214.317 53.9514 214.75C54.0189 215.168 54.0865 215.546 54.154 215.884C54.2215 216.222 54.2958 216.478 54.3769 216.654C54.3363 215.357 54.3769 214.236 54.4984 213.291C54.62 212.332 54.8496 211.555 55.1872 210.961C55.5384 210.353 56.0111 209.935 56.6054 209.705C57.2132 209.462 57.9695 209.408 58.8745 209.543C59.2932 209.543 59.5025 209.766 59.5025 210.211C59.5025 210.387 59.3877 210.509 59.1581 210.576C58.9285 210.63 58.6719 210.671 58.3882 210.698C58.1046 210.711 57.8277 210.731 57.5576 210.758C57.2875 210.785 57.0916 210.853 56.9701 210.961C56.4838 211.231 56.1394 211.65 55.9368 212.217C55.7477 212.784 55.6127 213.453 55.5316 214.223C55.4506 214.993 55.3898 215.837 55.3493 216.755C55.3223 217.66 55.2345 218.592 55.0859 219.551C55.0859 219.686 55.0319 219.787 54.9239 219.855C54.8158 219.923 54.6807 219.956 54.5187 219.956C54.3701 219.956 54.2215 219.923 54.073 219.855C53.9379 219.787 53.8298 219.686 53.7488 219.551L52.3104 210.252ZM69.8754 215.357C69.9159 214.871 69.9564 214.344 69.997 213.777C70.0375 213.196 70.0983 212.622 70.1793 212.055C70.2738 211.488 70.3886 210.948 70.5237 210.434C70.6723 209.921 70.8614 209.469 71.091 209.077C71.3341 208.672 71.6312 208.354 71.9824 208.125C72.3336 207.882 72.759 207.767 73.2587 207.78C73.5964 207.78 73.853 207.922 74.0286 208.206C74.2177 208.489 74.346 208.834 74.4135 209.239C74.4946 209.644 74.5351 210.063 74.5351 210.495C74.5486 210.914 74.5553 211.258 74.5553 211.528C74.2852 211.528 74.0624 211.414 73.8868 211.184C73.7112 210.941 73.5761 210.664 73.4816 210.353C73.387 210.043 73.3195 209.739 73.279 209.442L73.2182 208.854C73.2047 208.854 73.1777 208.854 73.1372 208.854C73.1102 208.841 73.0899 208.834 73.0764 208.834C72.8468 208.834 72.6307 208.962 72.4281 209.219C72.239 209.475 72.0567 209.806 71.8811 210.211C71.719 210.603 71.5772 211.049 71.4556 211.549C71.3341 212.035 71.2328 212.514 71.1517 212.987C71.0707 213.46 71.0032 213.899 70.9492 214.304C70.9086 214.696 70.8884 214.999 70.8884 215.216C70.8614 215.567 70.8614 215.952 70.8884 216.37C70.9154 216.789 70.9964 217.181 71.1315 217.545C71.2666 217.91 71.4556 218.227 71.6988 218.498C71.9419 218.754 72.266 218.93 72.6712 219.024C73.1709 219.024 73.5761 218.957 73.8868 218.822C74.1974 218.687 74.4473 218.504 74.6364 218.275C74.839 218.045 74.9943 217.789 75.1024 217.505C75.2104 217.221 75.3117 216.931 75.4062 216.634C75.5143 216.323 75.6224 216.019 75.7304 215.722C75.8385 215.425 75.9938 215.148 76.1964 214.891C76.3584 214.851 76.4733 214.858 76.5408 214.912C76.6218 214.952 76.6758 215.013 76.7029 215.094C76.7299 215.175 76.7434 215.27 76.7434 215.378V215.601C76.7434 216.168 76.6488 216.715 76.4597 217.242C76.2707 217.768 75.9938 218.241 75.6291 218.66C75.2644 219.065 74.8255 219.396 74.3122 219.652C73.8125 219.896 73.2385 220.017 72.5902 220.017C72.0499 220.017 71.5975 219.848 71.2328 219.511C70.8816 219.159 70.6047 218.741 70.4021 218.255C70.2131 217.768 70.078 217.262 69.997 216.735C69.9159 216.195 69.8754 215.736 69.8754 215.357ZM77.9589 217.242C77.8644 216.62 77.8171 216.019 77.8171 215.438C77.8171 214.844 77.8509 214.243 77.9184 213.635C77.9995 213.028 78.1075 212.4 78.2426 211.751C78.3912 211.089 78.56 210.38 78.7491 209.624C78.7491 209.475 78.7896 209.34 78.8706 209.219C78.9517 209.084 79.0597 208.976 79.1948 208.895C79.3298 208.8 79.4717 208.726 79.6202 208.672C79.7688 208.618 79.9106 208.591 80.0457 208.591C80.3428 208.591 80.6129 208.685 80.8561 208.874C81.0992 209.063 81.3153 209.293 81.5044 209.563C81.707 209.833 81.8758 210.124 82.0109 210.434C82.1594 210.731 82.281 210.988 82.3755 211.204C82.4836 211.677 82.5579 212.217 82.5984 212.825C82.6524 213.419 82.6592 214.027 82.6186 214.648C82.5781 215.27 82.4836 215.884 82.335 216.492C82.1864 217.086 81.9771 217.633 81.707 218.133C81.4368 218.633 81.0857 219.051 80.6535 219.389C80.2348 219.727 79.735 219.936 79.1543 220.017C78.8436 220.017 78.6073 219.916 78.4452 219.713C78.2831 219.497 78.1615 219.24 78.0805 218.943C78.013 218.633 77.9725 218.322 77.9589 218.011C77.9589 217.701 77.9589 217.444 77.9589 217.242ZM78.9922 217.181C78.9922 217.316 78.9922 217.444 78.9922 217.566C79.0057 217.687 79.0192 217.809 79.0327 217.93C79.0597 218.038 79.0867 218.16 79.1137 218.295C79.1543 218.417 79.2015 218.558 79.2556 218.72H79.3771C79.7013 218.72 79.9781 218.612 80.2078 218.396C80.4374 218.18 80.6332 217.903 80.7953 217.566C80.9574 217.215 81.0924 216.83 81.2005 216.411C81.3085 215.979 81.3896 215.56 81.4436 215.155C81.5111 214.736 81.5516 214.351 81.5651 214C81.5922 213.635 81.6057 213.345 81.6057 213.129V212.724C81.6057 212.548 81.5989 212.352 81.5854 212.136C81.5719 211.907 81.5449 211.677 81.5044 211.447C81.4774 211.204 81.4301 210.988 81.3626 210.799C81.295 210.596 81.2072 210.434 81.0992 210.313C80.9911 210.191 80.8493 210.13 80.6737 210.13C80.3766 210.036 80.12 210.056 79.9039 210.191C79.7013 210.326 79.5324 210.556 79.3974 210.88C79.2758 211.191 79.1813 211.576 79.1137 212.035C79.0462 212.494 79.0057 213.001 78.9922 213.554C78.9787 214.108 78.9719 214.696 78.9719 215.317C78.9854 215.938 78.9922 216.559 78.9922 217.181ZM83.9355 218.984C84.0301 218.363 84.0908 217.586 84.1178 216.654C84.1584 215.722 84.1719 214.729 84.1584 213.676C84.1584 212.622 84.1381 211.535 84.0976 210.414C84.0571 209.293 84.003 208.233 83.9355 207.233C83.868 206.22 83.7869 205.315 83.6924 204.519C83.6114 203.722 83.5236 203.094 83.429 202.634C83.5506 202.553 83.6519 202.493 83.7329 202.452C83.8275 202.398 83.9355 202.371 84.0571 202.371C84.1516 202.371 84.2327 202.391 84.3002 202.432C84.3677 202.459 84.4217 202.526 84.4623 202.634C84.7324 205.282 84.9147 207.949 85.0093 210.637C85.1173 213.325 85.1984 215.999 85.2524 218.66C85.2524 218.781 85.2524 218.95 85.2524 219.166C85.2524 219.369 85.2456 219.477 85.2321 219.49C85.043 219.585 84.8742 219.632 84.7256 219.632C84.5771 219.619 84.442 219.578 84.3204 219.511C84.1989 219.43 84.1043 219.342 84.0368 219.247C83.9693 219.153 83.9355 219.065 83.9355 218.984ZM86.7921 218.984C86.8866 218.363 86.9474 217.586 86.9744 216.654C87.015 215.722 87.0285 214.729 87.015 213.676C87.015 212.622 86.9947 211.535 86.9542 210.414C86.9137 209.293 86.8596 208.233 86.7921 207.233C86.7246 206.22 86.6435 205.315 86.549 204.519C86.468 203.722 86.3802 203.094 86.2856 202.634C86.4072 202.553 86.5085 202.493 86.5895 202.452C86.6841 202.398 86.7921 202.371 86.9137 202.371C87.0082 202.371 87.0892 202.391 87.1568 202.432C87.2243 202.459 87.2783 202.526 87.3189 202.634C87.589 205.282 87.7713 207.949 87.8659 210.637C87.9739 213.325 88.0549 215.999 88.109 218.66C88.109 218.781 88.109 218.95 88.109 219.166C88.109 219.369 88.1022 219.477 88.0887 219.49C87.8996 219.585 87.7308 219.632 87.5822 219.632C87.4337 219.619 87.2986 219.578 87.177 219.511C87.0555 219.43 86.9609 219.342 86.8934 219.247C86.8259 219.153 86.7921 219.065 86.7921 218.984ZM94.977 219.49C94.9094 219.139 94.8486 218.72 94.7946 218.234C94.7541 217.735 94.7068 217.235 94.6528 216.735C94.5988 216.222 94.5312 215.742 94.4502 215.297C94.3827 214.851 94.2746 214.486 94.1261 214.203C93.4372 215.607 92.8294 216.715 92.3027 217.525C91.776 218.322 91.31 218.896 90.9048 219.247C90.5131 219.585 90.1822 219.747 89.9121 219.733C89.6419 219.72 89.4191 219.598 89.2435 219.369C89.0679 219.139 88.9396 218.849 88.8586 218.498C88.791 218.133 88.7438 217.795 88.7168 217.485C88.7168 217.188 88.7843 216.769 88.9194 216.229C89.0544 215.688 89.2368 215.101 89.4664 214.466C89.696 213.818 89.9661 213.163 90.2767 212.501C90.6009 211.839 90.9453 211.238 91.31 210.698C91.6747 210.157 92.0528 209.712 92.4445 209.361C92.8362 209.009 93.2279 208.834 93.6196 208.834C94.2003 208.739 94.6258 208.868 94.8959 209.219C95.1796 209.556 95.2336 210.13 95.058 210.941C95.058 211.832 95.0918 212.595 95.1593 213.23C95.2403 213.865 95.3214 214.473 95.4024 215.054C95.497 215.634 95.578 216.242 95.6455 216.877C95.7266 217.512 95.7671 218.275 95.7671 219.166C95.7671 219.328 95.7468 219.47 95.7063 219.592C95.6793 219.7 95.5172 219.754 95.2201 219.754C95.1796 219.754 95.1255 219.72 95.058 219.652C95.004 219.585 94.977 219.531 94.977 219.49ZM93.8829 210.434C93.7344 210.218 93.5318 210.198 93.2752 210.374C93.0185 210.549 92.7484 210.84 92.4648 211.245C92.1811 211.65 91.8908 212.136 91.5936 212.703C91.2965 213.271 91.0196 213.845 90.763 214.425C90.5064 215.006 90.2835 215.56 90.0944 216.087C89.9053 216.6 89.777 217.025 89.7095 217.363C89.7095 217.849 89.7838 218.126 89.9323 218.194C90.0809 218.248 90.2632 218.167 90.4793 217.951C90.6954 217.735 90.9386 217.424 91.2087 217.019C91.4923 216.613 91.7624 216.181 92.0191 215.722C92.2892 215.263 92.5391 214.817 92.7687 214.385C93.0118 213.953 93.2009 213.602 93.3359 213.331C93.4575 213.048 93.552 212.784 93.6196 212.541C93.6871 212.298 93.7411 212.069 93.7816 211.852C93.8357 211.623 93.8627 211.393 93.8627 211.164C93.8762 210.934 93.8829 210.691 93.8829 210.434ZM97.1447 219.875C97.0772 218.808 97.0502 217.674 97.0637 216.472C97.0907 215.27 97.1245 213.973 97.165 212.582C97.2055 211.191 97.2393 209.685 97.2663 208.064C97.3068 206.43 97.3136 204.647 97.2865 202.715C97.4351 202.715 97.5904 202.709 97.7525 202.695C97.9146 202.668 98.0564 202.661 98.178 202.675C98.313 202.688 98.4211 202.729 98.5021 202.796C98.5967 202.864 98.6439 202.986 98.6439 203.161C98.6439 203.661 98.6237 204.242 98.5832 204.903C98.5561 205.552 98.5156 206.268 98.4616 207.051C98.4076 207.821 98.3603 208.651 98.3198 209.543C98.2928 210.434 98.2793 211.373 98.2793 212.359C98.752 211.738 99.1909 211.231 99.5961 210.84C100.001 210.448 100.386 210.137 100.751 209.908C101.116 209.664 101.474 209.516 101.825 209.462C102.176 209.394 102.52 209.374 102.858 209.401C103.25 209.401 103.567 209.509 103.81 209.725C104.067 209.941 104.263 210.211 104.398 210.536C104.533 210.86 104.627 211.224 104.681 211.63C104.735 212.021 104.762 212.406 104.762 212.784C104.762 213.055 104.742 213.345 104.702 213.656C104.675 213.953 104.6 214.284 104.479 214.648C104.357 215.013 104.168 215.391 103.911 215.783C103.668 216.161 103.324 216.566 102.878 216.998C102.432 217.431 101.865 217.876 101.176 218.336C100.501 218.795 99.6772 219.267 98.7047 219.754C98.3806 219.848 98.1172 219.909 97.9146 219.936C97.7255 219.95 97.5702 219.956 97.4486 219.956C97.3406 219.943 97.2595 219.929 97.2055 219.916C97.165 219.902 97.1447 219.889 97.1447 219.875ZM98.0159 218.66C98.0834 218.619 98.2658 218.531 98.5629 218.396C98.86 218.248 99.2112 218.059 99.6164 217.829C100.022 217.599 100.461 217.323 100.933 216.998C101.406 216.674 101.838 216.296 102.23 215.864C102.635 215.432 102.979 214.945 103.263 214.405C103.547 213.865 103.716 213.271 103.77 212.622C103.77 212.433 103.743 212.231 103.689 212.015C103.635 211.798 103.547 211.596 103.425 211.407C103.317 211.218 103.175 211.062 103 210.941C102.824 210.806 102.615 210.738 102.372 210.738C101.872 210.738 101.399 210.873 100.954 211.143C100.521 211.414 100.123 211.751 99.7582 212.156C99.3935 212.562 99.0694 213.001 98.7857 213.473C98.5021 213.932 98.2725 214.358 98.0969 214.75L98.0159 218.66ZM105.978 217.242C105.883 216.62 105.836 216.019 105.836 215.438C105.836 214.844 105.87 214.243 105.937 213.635C106.018 213.028 106.126 212.4 106.262 211.751C106.41 211.089 106.579 210.38 106.768 209.624C106.768 209.475 106.809 209.34 106.89 209.219C106.971 209.084 107.079 208.976 107.214 208.895C107.349 208.8 107.491 208.726 107.639 208.672C107.788 208.618 107.93 208.591 108.065 208.591C108.362 208.591 108.632 208.685 108.875 208.874C109.118 209.063 109.334 209.293 109.523 209.563C109.726 209.833 109.895 210.124 110.03 210.434C110.178 210.731 110.3 210.988 110.394 211.204C110.503 211.677 110.577 212.217 110.617 212.825C110.671 213.419 110.678 214.027 110.638 214.648C110.597 215.27 110.503 215.884 110.354 216.492C110.205 217.086 109.996 217.633 109.726 218.133C109.456 218.633 109.105 219.051 108.672 219.389C108.254 219.727 107.754 219.936 107.173 220.017C106.863 220.017 106.626 219.916 106.464 219.713C106.302 219.497 106.18 219.24 106.099 218.943C106.032 218.633 105.991 218.322 105.978 218.011C105.978 217.701 105.978 217.444 105.978 217.242ZM107.011 217.181C107.011 217.316 107.011 217.444 107.011 217.566C107.025 217.687 107.038 217.809 107.052 217.93C107.079 218.038 107.106 218.16 107.133 218.295C107.173 218.417 107.22 218.558 107.274 218.72H107.396C107.72 218.72 107.997 218.612 108.227 218.396C108.456 218.18 108.652 217.903 108.814 217.566C108.976 217.215 109.111 216.83 109.219 216.411C109.327 215.979 109.408 215.56 109.463 215.155C109.53 214.736 109.571 214.351 109.584 214C109.611 213.635 109.625 213.345 109.625 213.129V212.724C109.625 212.548 109.618 212.352 109.604 212.136C109.591 211.907 109.564 211.677 109.523 211.447C109.496 211.204 109.449 210.988 109.381 210.799C109.314 210.596 109.226 210.434 109.118 210.313C109.01 210.191 108.868 210.13 108.693 210.13C108.396 210.036 108.139 210.056 107.923 210.191C107.72 210.326 107.551 210.556 107.416 210.88C107.295 211.191 107.2 211.576 107.133 212.035C107.065 212.494 107.025 213.001 107.011 213.554C106.998 214.108 106.991 214.696 106.991 215.317C107.004 215.938 107.011 216.559 107.011 217.181ZM111.529 210.252V210.09C111.529 209.955 111.576 209.86 111.671 209.806C111.779 209.752 111.9 209.725 112.035 209.725C112.144 209.725 112.245 209.739 112.339 209.766C112.434 209.779 112.508 209.854 112.562 209.989C112.603 210.191 112.643 210.475 112.684 210.84C112.724 211.191 112.772 211.582 112.826 212.015C112.88 212.447 112.934 212.906 112.988 213.392C113.055 213.865 113.116 214.317 113.17 214.75C113.238 215.168 113.305 215.546 113.373 215.884C113.44 216.222 113.514 216.478 113.595 216.654C113.555 215.357 113.595 214.236 113.717 213.291C113.839 212.332 114.068 211.555 114.406 210.961C114.757 210.353 115.23 209.935 115.824 209.705C116.432 209.462 117.188 209.408 118.093 209.543C118.512 209.543 118.721 209.766 118.721 210.211C118.721 210.387 118.606 210.509 118.377 210.576C118.147 210.63 117.89 210.671 117.607 210.698C117.323 210.711 117.046 210.731 116.776 210.758C116.506 210.785 116.31 210.853 116.189 210.961C115.702 211.231 115.358 211.65 115.155 212.217C114.966 212.784 114.831 213.453 114.75 214.223C114.669 214.993 114.608 215.837 114.568 216.755C114.541 217.66 114.453 218.592 114.305 219.551C114.305 219.686 114.251 219.787 114.142 219.855C114.034 219.923 113.899 219.956 113.737 219.956C113.589 219.956 113.44 219.923 113.292 219.855C113.157 219.787 113.048 219.686 112.967 219.551L111.529 210.252ZM125.508 219.49C125.441 219.139 125.38 218.72 125.326 218.234C125.285 217.735 125.238 217.235 125.184 216.735C125.13 216.222 125.062 215.742 124.981 215.297C124.914 214.851 124.806 214.486 124.657 214.203C123.968 215.607 123.361 216.715 122.834 217.525C122.307 218.322 121.841 218.896 121.436 219.247C121.044 219.585 120.713 219.747 120.443 219.733C120.173 219.72 119.95 219.598 119.775 219.369C119.599 219.139 119.471 218.849 119.39 218.498C119.322 218.133 119.275 217.795 119.248 217.485C119.248 217.188 119.315 216.769 119.45 216.229C119.586 215.688 119.768 215.101 119.997 214.466C120.227 213.818 120.497 213.163 120.808 212.501C121.132 211.839 121.476 211.238 121.841 210.698C122.206 210.157 122.584 209.712 122.976 209.361C123.367 209.009 123.759 208.834 124.151 208.834C124.731 208.739 125.157 208.868 125.427 209.219C125.711 209.556 125.765 210.13 125.589 210.941C125.589 211.832 125.623 212.595 125.69 213.23C125.771 213.865 125.852 214.473 125.934 215.054C126.028 215.634 126.109 216.242 126.177 216.877C126.258 217.512 126.298 218.275 126.298 219.166C126.298 219.328 126.278 219.47 126.237 219.592C126.21 219.7 126.048 219.754 125.751 219.754C125.711 219.754 125.657 219.72 125.589 219.652C125.535 219.585 125.508 219.531 125.508 219.49ZM124.414 210.434C124.265 210.218 124.063 210.198 123.806 210.374C123.55 210.549 123.28 210.84 122.996 211.245C122.712 211.65 122.422 212.136 122.125 212.703C121.828 213.271 121.551 213.845 121.294 214.425C121.037 215.006 120.815 215.56 120.626 216.087C120.436 216.6 120.308 217.025 120.241 217.363C120.241 217.849 120.315 218.126 120.463 218.194C120.612 218.248 120.794 218.167 121.01 217.951C121.227 217.735 121.47 217.424 121.74 217.019C122.023 216.613 122.294 216.181 122.55 215.722C122.82 215.263 123.07 214.817 123.3 214.385C123.543 213.953 123.732 213.602 123.867 213.331C123.989 213.048 124.083 212.784 124.151 212.541C124.218 212.298 124.272 212.069 124.313 211.852C124.367 211.623 124.394 211.393 124.394 211.164C124.407 210.934 124.414 210.691 124.414 210.434ZM127.899 211.366C127.764 211.434 127.635 211.508 127.514 211.589C127.406 211.657 127.298 211.724 127.19 211.792C127.082 211.846 126.974 211.886 126.865 211.913C126.757 211.94 126.643 211.94 126.521 211.913C126.44 211.913 126.372 211.866 126.318 211.771C126.264 211.663 126.224 211.549 126.197 211.427C126.156 211.292 126.129 211.164 126.116 211.042C126.102 210.907 126.102 210.806 126.116 210.738L128.061 209.624L128.182 204.438C128.209 204.262 128.317 204.194 128.506 204.235C128.696 204.262 128.891 204.302 129.094 204.356C129.121 204.356 129.162 204.37 129.216 204.397C129.283 204.41 129.33 204.424 129.357 204.438C129.33 204.802 129.297 205.201 129.256 205.633C129.229 206.052 129.202 206.477 129.175 206.909C129.148 207.328 129.128 207.74 129.114 208.145C129.114 208.55 129.135 208.915 129.175 209.239L132.214 208.388C132.268 208.375 132.309 208.415 132.336 208.51C132.376 208.591 132.41 208.692 132.437 208.814C132.477 208.935 132.504 209.057 132.518 209.178C132.531 209.3 132.538 209.361 132.538 209.361L129.094 210.819C129.094 210.941 129.101 211.231 129.114 211.69C129.141 212.15 129.168 212.697 129.195 213.331C129.222 213.953 129.249 214.628 129.276 215.357C129.303 216.073 129.33 216.742 129.357 217.363C129.384 217.984 129.405 218.531 129.418 219.004C129.432 219.463 129.438 219.754 129.438 219.875C129.411 220.28 129.29 220.483 129.074 220.483C128.871 220.483 128.648 220.382 128.405 220.179L127.899 211.366ZM132.903 217.242C132.808 216.62 132.761 216.019 132.761 215.438C132.761 214.844 132.795 214.243 132.862 213.635C132.943 213.028 133.051 212.4 133.186 211.751C133.335 211.089 133.504 210.38 133.693 209.624C133.693 209.475 133.733 209.34 133.814 209.219C133.896 209.084 134.004 208.976 134.139 208.895C134.274 208.8 134.416 208.726 134.564 208.672C134.713 208.618 134.854 208.591 134.99 208.591C135.287 208.591 135.557 208.685 135.8 208.874C136.043 209.063 136.259 209.293 136.448 209.563C136.651 209.833 136.82 210.124 136.955 210.434C137.103 210.731 137.225 210.988 137.319 211.204C137.427 211.677 137.502 212.217 137.542 212.825C137.596 213.419 137.603 214.027 137.562 214.648C137.522 215.27 137.427 215.884 137.279 216.492C137.13 217.086 136.921 217.633 136.651 218.133C136.381 218.633 136.03 219.051 135.597 219.389C135.179 219.727 134.679 219.936 134.098 220.017C133.787 220.017 133.551 219.916 133.389 219.713C133.227 219.497 133.105 219.24 133.024 218.943C132.957 218.633 132.916 218.322 132.903 218.011C132.903 217.701 132.903 217.444 132.903 217.242ZM133.936 217.181C133.936 217.316 133.936 217.444 133.936 217.566C133.95 217.687 133.963 217.809 133.977 217.93C134.004 218.038 134.031 218.16 134.058 218.295C134.098 218.417 134.145 218.558 134.199 218.72H134.321C134.645 218.72 134.922 218.612 135.152 218.396C135.381 218.18 135.577 217.903 135.739 217.566C135.901 217.215 136.036 216.83 136.144 216.411C136.252 215.979 136.333 215.56 136.387 215.155C136.455 214.736 136.495 214.351 136.509 214C136.536 213.635 136.55 213.345 136.55 213.129V212.724C136.55 212.548 136.543 212.352 136.529 212.136C136.516 211.907 136.489 211.677 136.448 211.447C136.421 211.204 136.374 210.988 136.306 210.799C136.239 210.596 136.151 210.434 136.043 210.313C135.935 210.191 135.793 210.13 135.618 210.13C135.32 210.036 135.064 210.056 134.848 210.191C134.645 210.326 134.476 210.556 134.341 210.88C134.22 211.191 134.125 211.576 134.058 212.035C133.99 212.494 133.95 213.001 133.936 213.554C133.923 214.108 133.916 214.696 133.916 215.317C133.929 215.938 133.936 216.559 133.936 217.181ZM138.454 210.252V210.09C138.454 209.955 138.501 209.86 138.596 209.806C138.704 209.752 138.825 209.725 138.96 209.725C139.068 209.725 139.17 209.739 139.264 209.766C139.359 209.779 139.433 209.854 139.487 209.989C139.528 210.191 139.568 210.475 139.609 210.84C139.649 211.191 139.697 211.582 139.751 212.015C139.805 212.447 139.859 212.906 139.913 213.392C139.98 213.865 140.041 214.317 140.095 214.75C140.162 215.168 140.23 215.546 140.298 215.884C140.365 216.222 140.439 216.478 140.52 216.654C140.48 215.357 140.52 214.236 140.642 213.291C140.764 212.332 140.993 211.555 141.331 210.961C141.682 210.353 142.155 209.935 142.749 209.705C143.357 209.462 144.113 209.408 145.018 209.543C145.437 209.543 145.646 209.766 145.646 210.211C145.646 210.387 145.531 210.509 145.302 210.576C145.072 210.63 144.815 210.671 144.532 210.698C144.248 210.711 143.971 210.731 143.701 210.758C143.431 210.785 143.235 210.853 143.114 210.961C142.627 211.231 142.283 211.65 142.08 212.217C141.891 212.784 141.756 213.453 141.675 214.223C141.594 214.993 141.533 215.837 141.493 216.755C141.466 217.66 141.378 218.592 141.229 219.551C141.229 219.686 141.175 219.787 141.067 219.855C140.959 219.923 140.824 219.956 140.662 219.956C140.514 219.956 140.365 219.923 140.216 219.855C140.081 219.787 139.973 219.686 139.892 219.551L138.454 210.252ZM148.28 219.713C148.28 219.727 148.422 219.646 148.705 219.47C149.002 219.294 149.347 219.065 149.738 218.781C150.144 218.484 150.556 218.167 150.974 217.829C151.393 217.478 151.737 217.147 152.008 216.836C152.278 216.526 152.419 216.262 152.433 216.046C152.46 215.817 152.278 215.668 151.886 215.601C151.4 215.533 150.988 215.54 150.65 215.621C150.326 215.702 150.029 215.796 149.759 215.904C149.489 216.012 149.232 216.114 148.989 216.208C148.759 216.303 148.503 216.337 148.219 216.31C147.625 216.31 147.213 216.127 146.983 215.763C146.767 215.384 146.659 214.878 146.659 214.243C146.659 213.608 146.801 213.007 147.084 212.44C147.368 211.859 147.733 211.36 148.178 210.941C148.624 210.522 149.137 210.191 149.718 209.948C150.299 209.691 150.893 209.563 151.501 209.563C151.744 209.563 151.954 209.583 152.129 209.624C152.305 209.664 152.392 209.82 152.392 210.09C152.392 210.279 152.311 210.461 152.149 210.637C151.987 210.799 151.805 210.88 151.602 210.88C151.589 210.88 151.555 210.873 151.501 210.86C151.447 210.833 151.393 210.799 151.339 210.758C151.285 210.718 151.231 210.691 151.177 210.677C151.123 210.65 151.089 210.637 151.076 210.637C150.643 210.515 150.225 210.576 149.82 210.819C149.414 211.062 149.05 211.393 148.725 211.812C148.415 212.217 148.165 212.663 147.976 213.149C147.787 213.622 147.692 214.047 147.692 214.425C147.692 214.574 147.719 214.696 147.773 214.79C147.841 214.871 147.922 214.932 148.016 214.972C148.124 215.013 148.239 215.04 148.361 215.054C148.496 215.054 148.631 215.054 148.766 215.054C149.036 215.054 149.306 215.013 149.576 214.932C149.86 214.851 150.13 214.756 150.387 214.648C150.657 214.54 150.927 214.446 151.197 214.365C151.481 214.284 151.771 214.243 152.068 214.243C152.203 214.243 152.352 214.284 152.514 214.365C152.676 214.432 152.825 214.54 152.96 214.689C153.095 214.824 153.21 214.986 153.304 215.175C153.399 215.351 153.453 215.546 153.466 215.763C153.547 215.952 153.52 216.202 153.385 216.512C153.264 216.823 153.075 217.154 152.818 217.505C152.561 217.856 152.251 218.214 151.886 218.579C151.521 218.93 151.157 219.254 150.792 219.551C150.427 219.835 150.069 220.064 149.718 220.24C149.367 220.429 149.07 220.517 148.827 220.503C148.557 220.503 148.395 220.422 148.341 220.26C148.3 220.098 148.28 219.916 148.28 219.713Z" fill="#072125"/>
<path d="M63.6342 180.458C40.3913 162.977 -2.40647 102.43 12.3461 0.0847168" stroke="black" stroke-width="1.15254" stroke-dasharray="3.46 3.46"/>
</svg>
