<svg width="185" height="20" viewBox="0 0 185 20" fill="none" xmlns="http://www.w3.org/2000/svg">
<path d="M184.435 1.71824V19.1892L172.422 6.66457V18.1682H169.92V0.606445L181.955 13.1538V1.71824H184.435Z" fill="#20484F"/>
<path d="M156.68 1.37793C156.68 1.37793 154.245 1.40062 152.289 2.55779C152.289 2.55779 150.332 3.69227 149.195 5.64357C149.195 5.64357 148.034 7.57219 148.012 9.99997C148.012 9.99997 148.034 12.4051 149.172 14.311C149.172 14.311 150.332 16.2169 152.266 17.3287C152.266 17.3287 154.223 18.4632 156.68 18.4859C156.68 18.4859 159.068 18.4632 161.002 17.306C161.002 17.306 162.936 16.1715 164.074 14.2429C164.074 14.2429 165.234 12.3143 165.257 9.9319C165.257 9.9319 165.234 7.5495 164.074 5.62088C164.074 5.62088 162.936 3.69227 161.002 2.55779C161.002 2.55779 159.068 1.40062 156.68 1.37793ZM156.657 3.71496C156.657 3.71496 158.409 3.73765 159.774 4.55447C159.774 4.55447 161.139 5.3713 161.935 6.75536C161.935 6.75536 162.754 8.16212 162.754 9.95459C162.754 9.95459 162.731 11.679 161.935 13.0858C161.935 13.0858 161.116 14.4698 159.728 15.2866C159.728 15.2866 158.363 16.1262 156.657 16.1262C156.657 16.1262 154.928 16.1035 153.54 15.3093C153.54 15.3093 152.152 14.4925 151.333 13.1084C151.333 13.1084 150.537 11.7017 150.514 9.95459C150.514 9.95459 150.537 8.18481 151.333 6.77805C151.333 6.77805 152.13 5.3713 153.517 4.55447C153.517 4.55447 154.905 3.73765 156.657 3.71496Z" fill="#20484F"/>
<path d="M141.96 4.03258V18.1682H139.457V4.03258H135.681V1.69556H145.759V4.03258H141.96Z" fill="#20484F"/>
<path d="M133.337 4.03258H129.538V18.1682H127.035V4.03258H123.259V1.69556H133.337V4.03258Z" fill="#20484F"/>
<path d="M118.982 1.69556V18.1682H116.479V1.69556H118.982Z" fill="#20484F"/>
<path d="M110.655 1.69556V12.2916C110.655 12.2916 110.632 14.0841 109.859 15.4681C109.859 15.4681 109.063 16.8522 107.698 17.669C107.698 17.669 106.333 18.4632 104.581 18.4859C104.581 18.4859 102.806 18.4632 101.418 17.669C101.418 17.669 100.053 16.8522 99.2572 15.4681C99.2572 15.4681 98.4837 14.0841 98.4609 12.2916V1.69556H100.963V11.6109C100.963 11.6109 100.963 12.6773 101.077 13.3126C101.077 13.3126 101.191 13.9479 101.487 14.4471C101.487 14.4471 101.942 15.2412 102.761 15.6723C102.761 15.6723 103.58 16.1261 104.581 16.1261C104.581 16.1261 105.559 16.1261 106.378 15.6723C106.378 15.6723 107.174 15.2412 107.652 14.4471C107.652 14.4471 107.948 13.9479 108.062 13.3126L108.153 11.6109V1.69556H110.655Z" fill="#20484F"/>
<path d="M79.9189 1.69556H82.649L87.1991 13.1084L91.8175 1.69556H94.5476L87.1536 19.3934L79.9189 1.69556Z" fill="#20484F"/>
<path d="M65.4042 4.0553C65.4042 4.0553 64.8582 3.71496 64.0164 3.71496C64.0164 3.71496 62.9699 3.73765 62.3102 4.30489C62.3102 4.30489 61.6504 4.87213 61.6276 5.75702C61.6276 5.75702 61.6049 6.59654 62.4012 7.14109L62.8107 7.41336L63.4477 7.70833L65.063 8.36632C65.063 8.36632 67.0423 9.18315 67.975 10.3403C67.975 10.3403 68.9306 11.5202 68.9078 13.1538C68.9078 13.1538 68.9078 14.6967 68.2253 15.8993C68.2253 15.8993 67.5655 17.0791 66.3825 17.7825C66.3825 17.7825 65.1995 18.4632 63.6979 18.4859C63.6979 18.4859 61.4684 18.4632 60.0806 17.2153C60.0806 17.2153 58.6928 15.9446 58.3516 13.6303L60.8769 13.0404L61.0589 14.1522C61.0589 14.1522 61.1726 14.5606 61.3546 14.8555C61.3546 14.8555 61.6731 15.4455 62.3102 15.7858C62.3102 15.7858 62.9472 16.1262 63.7207 16.1262C63.7207 16.1262 64.9037 16.1035 65.6545 15.3547C65.6545 15.3547 66.4053 14.606 66.428 13.4034C66.428 13.4034 66.4053 11.9967 65.2905 11.2252C65.2905 11.2252 64.699 10.8395 64.062 10.5899L62.4922 9.90922C62.4922 9.90922 59.0796 8.50246 59.1023 5.75702C59.1023 5.75702 59.1023 4.4864 59.7621 3.51075C59.7621 3.51075 60.3991 2.5351 61.5139 1.96786C61.5139 1.96786 62.6287 1.40062 64.0392 1.37793C64.0392 1.37793 65.518 1.37793 66.5873 2.03593C66.5873 2.03593 67.6793 2.69393 68.4983 4.14606L66.4963 5.34861C66.4963 5.34861 65.9502 4.41833 65.4042 4.0553Z" fill="#20484F"/>
<path d="M53.3688 1.69556V18.1682H50.8662V1.69556H53.3688Z" fill="#20484F"/>
<path d="M42.5394 1.69556H45.0419V12.2916C45.0419 12.2916 45.0192 14.0841 44.2457 15.4681C44.2457 15.4681 43.4494 16.8522 42.0844 17.669C42.0844 17.669 40.7193 18.4632 38.9675 18.4859C38.9675 18.4859 37.193 18.4632 35.8052 17.669C35.8052 17.669 34.4402 16.8522 33.6439 15.4681C33.6439 15.4681 32.8704 14.0841 32.8477 12.2916V1.69556H35.3502V11.6109C35.3502 11.6109 35.3502 12.6773 35.464 13.3126C35.464 13.3126 35.5777 13.9479 35.8735 14.4471C35.8735 14.4471 36.3285 15.2412 37.1475 15.6723C37.1475 15.6723 37.9665 16.1261 38.9675 16.1261C38.9675 16.1261 39.9458 16.1261 40.7648 15.6723C40.7648 15.6723 41.5611 15.2412 42.0389 14.4471C42.0389 14.4471 42.3346 13.9479 42.4484 13.3126L42.5394 11.6109V1.69556Z" fill="#20484F"/>
<path d="M19.289 1.37793C19.289 1.37793 16.8547 1.40062 14.8982 2.55779C14.8982 2.55779 12.9416 3.69227 11.8041 5.64357C11.8041 5.64357 10.6438 7.57219 10.6211 9.99997C10.6211 9.99997 10.6438 12.4051 11.7814 14.311C11.7814 14.311 12.9416 16.2169 14.8754 17.3287C14.8754 17.3287 16.832 18.4632 19.289 18.4859C19.289 18.4859 21.6778 18.4632 23.6116 17.306C23.6116 17.306 25.5454 16.1715 26.683 14.2429C26.683 14.2429 27.8432 12.3143 27.866 9.9319C27.866 9.9319 27.8432 7.5495 26.683 5.62088C26.683 5.62088 25.5454 3.69227 23.6116 2.55779C23.6116 2.55779 21.6778 1.40062 19.289 1.37793ZM19.2663 3.71496C19.2663 3.71496 21.0181 3.73765 22.3831 4.55447C22.3831 4.55447 23.7481 5.3713 24.5444 6.75536C24.5444 6.75536 25.3407 8.16212 25.3634 9.95459C25.3634 9.95459 25.3407 11.679 24.5444 13.0858C24.5444 13.0858 23.7254 14.4698 22.3376 15.2866C22.3376 15.2866 20.9726 16.1262 19.2663 16.1262C19.2663 16.1262 17.5373 16.1035 16.1495 15.3093C16.1495 15.3093 14.7617 14.4925 13.9427 13.1084C13.9427 13.1084 13.1464 11.7017 13.1237 9.95459C13.1237 9.95459 13.1464 8.18481 13.9427 6.77805C13.9427 6.77805 14.7389 5.3713 16.1267 4.55447C16.1267 4.55447 17.5145 3.73765 19.2663 3.71496Z" fill="#20484F"/>
<path d="M3.06799 1.69556V15.8085H7.91385V18.1682H0.56543V1.69556H3.06799Z" fill="#20484F"/>
</svg>
