<svg width="277" height="398" viewBox="0 0 277 398" fill="none" xmlns="http://www.w3.org/2000/svg">
<rect x="2.69238" y="-1" width="265.144" height="6.08752" rx="3.04376" transform="rotate(37.3379 2.69238 -1)" fill="#B8E4DA"/>
<rect x="179.008" y="107.738" width="147.046" height="6.08752" rx="3.04376" transform="rotate(37.3379 179.008 107.738)" fill="#B8E4DA"/>
<rect x="162.987" y="318.43" width="147.046" height="6.08752" rx="3.04376" transform="rotate(37.3379 162.987 318.43)" fill="#B8E4DA"/>
<rect x="115.015" y="285.595" width="47.0744" height="6.08752" rx="3.04376" transform="rotate(37.3379 115.015 285.595)" fill="#B8E4DA"/>
<rect x="52.2334" y="10.9346" width="147.046" height="6.08752" rx="3.04376" transform="rotate(37.3379 52.2334 10.9346)" fill="#B8E4DA"/>
<rect x="150.522" y="60.2256" width="147.046" height="6.08752" rx="3.04376" transform="rotate(37.3379 150.522 60.2256)" fill="#B8E4DA"/>
<rect x="141.856" y="27.8848" width="147.046" height="6.08752" rx="3.04376" transform="rotate(37.3379 141.856 27.8848)" fill="#B8E4DA"/>
<rect x="210.45" y="330.921" width="147.046" height="6.08752" rx="3.04376" transform="rotate(37.3379 210.45 330.921)" fill="#B8E4DA"/>
<rect x="83.6758" y="234.118" width="147.046" height="6.08752" rx="3.04376" transform="rotate(37.3379 83.6758 234.118)" fill="#B8E4DA"/>
<rect x="181.964" y="283.409" width="147.046" height="6.08752" rx="3.04376" transform="rotate(37.3379 181.964 283.409)" fill="#B8E4DA"/>
<rect x="125.4" y="366.314" width="147.046" height="6.08752" rx="3.04376" transform="rotate(37.3379 125.4 366.314)" fill="#B8E4DA"/>
<rect x="101.879" y="372.617" width="147.046" height="6.08752" rx="3.04376" transform="rotate(37.3379 101.879 372.617)" fill="#B8E4DA"/>
<rect x="77.4277" y="333.48" width="47.0744" height="6.08752" rx="3.04376" transform="rotate(37.3379 77.4277 333.48)" fill="#B8E4DA"/>
<rect x="172.863" y="378.805" width="147.046" height="6.08752" rx="3.04376" transform="rotate(37.3379 172.863 378.805)" fill="#B8E4DA"/>
<rect x="144.377" y="331.294" width="147.046" height="6.08752" rx="3.04376" transform="rotate(37.3379 144.377 331.294)" fill="#B8E4DA"/>
<rect x="186.26" y="187.723" width="147.046" height="6.08752" rx="3.04376" transform="rotate(37.3379 186.26 187.723)" fill="#B8E4DA"/>
<rect x="167.831" y="175.086" width="8.92669" height="6.08752" rx="3.04376" transform="rotate(37.3379 167.831 175.086)" fill="#B8E4DA"/>
<rect x="84.2227" y="113.43" width="92.5672" height="6.08752" rx="3.04376" transform="rotate(37.3379 84.2227 113.43)" fill="#B8E4DA"/>
<rect x="110.707" y="206.393" width="92.5672" height="6.08752" rx="3.04376" transform="rotate(37.3379 110.707 206.393)" fill="#B8E4DA"/>
<rect x="225.216" y="169.408" width="197.261" height="6.08752" rx="3.04376" transform="rotate(37.3379 225.216 169.408)" fill="#B8E4DA"/>
<rect x="208.075" y="181.878" width="197.261" height="6.08752" rx="3.04376" transform="rotate(37.3379 208.075 181.878)" fill="#B8E4DA"/>
<rect x="43.1289" y="54.3391" width="197.261" height="6.08752" rx="3.04376" transform="rotate(37.3379 43.1289 54.3391)" fill="#B8E4DA"/>
<rect x="27.9014" y="93.0815" width="265.144" height="6.08752" rx="3.04376" transform="rotate(37.3379 27.9014 93.0815)" fill="#B8E4DA"/>
<rect x="211.47" y="281.805" width="147.046" height="6.08752" rx="3.04376" transform="rotate(37.3379 211.47 281.805)" fill="#B8E4DA"/>
<rect x="193.04" y="269.168" width="8.92669" height="6.08752" rx="3.04376" transform="rotate(37.3379 193.04 269.168)" fill="#B8E4DA"/>
<rect x="250.425" y="263.489" width="197.261" height="6.08752" rx="3.04376" transform="rotate(37.3379 250.425 263.489)" fill="#B8E4DA"/>
<rect x="233.284" y="275.96" width="197.261" height="6.08752" rx="3.04376" transform="rotate(37.3379 233.284 275.96)" fill="#B8E4DA"/>
<rect x="68.3389" y="148.42" width="197.261" height="6.08752" rx="3.04376" transform="rotate(37.3379 68.3389 148.42)" fill="#B8E4DA"/>
</svg>
