<svg width="118" height="30" viewBox="0 0 118 30" fill="none" xmlns="http://www.w3.org/2000/svg">
<path d="M37.9251 23.386L39.3889 19.9918C40.9695 21.1709 43.0658 21.7829 45.1389 21.7829C46.6744 21.7829 47.6364 21.1939 47.6364 20.2972C47.6133 17.8031 38.4674 19.7567 38.4003 13.4903C38.3772 10.3116 41.2042 7.85784 45.2106 7.85784C47.5913 7.85784 49.9709 8.44794 51.6694 9.79411L50.3016 13.2564C48.7476 12.2652 46.8143 11.5587 44.9759 11.5587C43.7248 11.5587 42.9027 12.1488 42.9027 12.9002C42.9258 15.3494 52.1389 14.0078 52.2337 19.9918C52.2337 23.242 49.4795 25.5286 45.5182 25.5286C42.6183 25.5286 39.9531 24.8452 37.9251 23.3849V23.386ZM94.0032 18.7667C93.5463 19.5788 92.8318 20.2168 91.9719 20.5804C91.112 20.944 90.1552 21.0127 89.2519 20.7757C88.3485 20.5388 87.5497 20.0095 86.9807 19.271C86.4118 18.5325 86.1049 17.6266 86.1083 16.6955C86.1068 16.1422 86.2148 15.594 86.4261 15.0824C86.6375 14.5707 86.948 14.1057 87.3399 13.7138C87.7318 13.322 88.1975 13.0111 88.7101 12.7989C89.2228 12.5867 89.7724 12.4774 90.3275 12.4772C91.9035 12.4772 93.2724 13.3509 94.0044 14.621L98.0327 12.3827C96.5238 9.69961 93.6239 7.85784 90.3275 7.85784C85.4446 7.85784 81.4879 11.8203 81.4879 16.6955C81.4879 21.5708 85.4446 25.5286 90.3275 25.5286C91.9008 25.532 93.4461 25.1138 94.8016 24.3177C96.1572 23.5217 97.2731 22.3771 98.0327 21.0037L94.0032 18.7678V18.7667ZM54.2617 0.532282H59.3076V25.2001H54.2617V0.533434V0.532282ZM100.016 0.532282V25.2001H105.056V17.8031L111.045 25.2001H117.504L109.889 16.412L116.939 8.21398H110.761L105.056 15.0209V0.533434H100.015L100.016 0.532282ZM74.2972 18.8162C73.5665 20.0183 72.0576 20.9092 70.359 20.9092C69.8044 20.9089 69.2553 20.7997 68.7431 20.5877C68.2309 20.3757 67.7656 20.0652 67.3739 19.6738C66.9821 19.2825 66.6716 18.818 66.4601 18.307C66.2485 17.796 66.1401 17.2484 66.141 16.6955C66.14 16.1424 66.2482 15.5946 66.4597 15.0832C66.6711 14.5718 66.9815 14.107 67.3732 13.7153C67.765 13.3235 68.2303 13.0126 68.7426 12.8001C69.2549 12.5877 69.8042 12.478 70.359 12.4772C72.0576 12.4772 73.5665 13.4177 74.2972 14.6429V18.8162ZM74.2972 8.21283V10.2182C73.4717 8.82598 71.4205 7.85784 69.2756 7.85784C64.8449 7.85784 61.3576 11.7707 61.3576 16.669C61.3576 21.5719 64.8449 25.5286 69.2756 25.5286C71.4205 25.5286 73.4717 24.5605 74.2972 23.174V25.1782H79.3431V8.21283H74.2972ZM6.74332 18.7886C6.74332 20.5093 5.35235 21.9004 3.6307 21.9004C3.2213 21.9001 2.81599 21.8193 2.43794 21.6627C2.0599 21.5061 1.71655 21.2767 1.42755 20.9877C1.13855 20.6986 0.909565 20.3556 0.753704 19.9783C0.597843 19.6009 0.518164 19.1966 0.519229 18.7886C0.518468 18.3808 0.598396 17.977 0.754436 17.6001C0.910476 17.2232 1.13956 16.8807 1.42858 16.5922C1.7176 16.3036 2.06087 16.0748 2.43874 15.9187C2.81661 15.7626 3.22166 15.6823 3.6307 15.6825H6.74332V18.7897V18.7886ZM8.29617 18.7886C8.29541 18.3807 8.37537 17.9768 8.53148 17.5998C8.6876 17.2228 8.91679 16.8803 9.20592 16.5917C9.49506 16.3032 9.83848 16.0744 10.2165 15.9183C10.5945 15.7623 10.9997 15.6821 11.4088 15.6825C11.8179 15.6823 12.2231 15.7626 12.601 15.9188C12.979 16.0749 13.3223 16.3039 13.6113 16.5926C13.9004 16.8812 14.1294 17.2238 14.2854 17.6009C14.4414 17.9779 14.5212 18.3819 14.5203 18.7897V26.5648C14.5212 26.9727 14.4414 27.3769 14.2855 27.7541C14.1295 28.1313 13.9005 28.4742 13.6115 28.7631C13.3225 29.052 12.9792 29.2813 12.6013 29.4379C12.2233 29.5944 11.8181 29.6752 11.4088 29.6755C10.9993 29.6753 10.5939 29.5947 10.2157 29.4381C9.83751 29.2815 9.49402 29.0522 9.2049 28.7631C8.91577 28.4741 8.68669 28.131 8.53075 27.7536C8.37482 27.3762 8.2951 26.9718 8.29617 26.5636V18.7897V18.7886ZM11.4088 6.30537C10.9993 6.30522 10.5939 6.22456 10.2157 6.06801C9.83751 5.91145 9.49402 5.68208 9.2049 5.39303C8.91577 5.10397 8.68669 4.76091 8.53075 4.38348C8.37482 4.00606 8.2951 3.60168 8.29617 3.1935C8.29541 2.78568 8.37537 2.38172 8.53148 2.00475C8.6876 1.62779 8.91679 1.28522 9.20592 0.996691C9.49506 0.708156 9.83848 0.479321 10.2165 0.32329C10.5945 0.167258 10.9997 0.0870993 11.4088 0.0874032C11.8178 0.0872509 12.2229 0.16752 12.6007 0.323619C12.9786 0.479718 13.3219 0.70858 13.6109 0.997099C13.8999 1.28562 14.129 1.62813 14.2851 2.00502C14.4411 2.38191 14.521 2.78578 14.5203 3.1935V6.30537H11.4088ZM11.4088 7.8855C11.8178 7.88535 12.2229 7.96562 12.6007 8.12172C12.9786 8.27782 13.3219 8.50668 13.6109 8.7952C13.8999 9.08372 14.129 9.42623 14.2851 9.80312C14.4411 10.18 14.521 10.5839 14.5203 10.9916C14.5203 12.7112 13.1293 14.1035 11.4088 14.1035H3.60873C3.19924 14.1033 2.7938 14.0227 2.41562 13.8661C2.03744 13.7096 1.69396 13.4802 1.40483 13.1911C1.11571 12.9021 0.886622 12.559 0.730689 12.1816C0.574755 11.8042 0.49504 11.3998 0.496104 10.9916C0.495344 10.5838 0.575309 10.1798 0.731421 9.80285C0.887533 9.42589 1.11672 9.08333 1.40586 8.79479C1.695 8.50626 2.03841 8.27742 2.41642 8.12139C2.79442 7.96536 3.19959 7.8852 3.60873 7.8855H11.4088ZM23.8789 10.9916C23.8782 10.5839 23.9581 10.18 24.1142 9.80312C24.2702 9.42623 24.4993 9.08372 24.7883 8.7952C25.0773 8.50668 25.4206 8.27782 25.7985 8.12172C26.1763 7.96562 26.5814 7.88535 26.9904 7.8855C27.3996 7.8852 27.8047 7.96536 28.1827 8.12139C28.5607 8.27742 28.9041 8.50626 29.1933 8.79479C29.4824 9.08333 29.7116 9.42589 29.8677 9.80285C30.0238 10.1798 30.1038 10.5838 30.103 10.9916C30.103 12.7112 28.7121 14.1035 26.9904 14.1035H23.8789V10.9916ZM22.3249 10.9916C22.3249 12.7112 20.934 14.1035 19.2135 14.1035C18.804 14.1033 18.3985 14.0227 18.0204 13.8661C17.6422 13.7096 17.2987 13.4802 17.0096 13.1911C16.7205 12.9021 16.4914 12.559 16.3354 12.1816C16.1795 11.8042 16.0998 11.3998 16.1009 10.9916V3.1935C16.1001 2.78568 16.1801 2.38172 16.3362 2.00475C16.4923 1.62779 16.7215 1.28522 17.0106 0.996691C17.2998 0.708156 17.6432 0.479321 18.0212 0.32329C18.3992 0.167258 18.8043 0.0870993 19.2135 0.0874032C19.6225 0.0872509 20.0276 0.16752 20.4054 0.323619C20.7833 0.479718 21.1266 0.70858 21.4156 0.997099C21.7046 1.28562 21.9337 1.62813 22.0897 2.00502C22.2458 2.38191 22.3257 2.78578 22.3249 3.1935V10.9916ZM19.2135 23.4575C19.6226 23.4574 20.0278 23.5377 20.4057 23.6938C20.7837 23.85 21.127 24.079 21.416 24.3676C21.705 24.6562 21.9341 24.9989 22.0901 25.3759C22.246 25.7529 22.3259 26.1569 22.3249 26.5648C22.3259 26.9727 22.2461 27.3769 22.0901 27.7541C21.9342 28.1313 21.7052 28.4742 21.4162 28.7631C21.1272 29.052 20.7839 29.2813 20.406 29.4379C20.028 29.5944 19.6228 29.6752 19.2135 29.6755C18.804 29.6753 18.3985 29.5947 18.0204 29.4381C17.6422 29.2815 17.2987 29.0522 17.0096 28.7631C16.7205 28.4741 16.4914 28.131 16.3354 27.7536C16.1795 27.3762 16.0998 26.9718 16.1009 26.5636V23.4575H19.2135ZM19.2135 21.9004C18.804 21.9003 18.3985 21.8196 18.0204 21.6631C17.6422 21.5065 17.2987 21.2771 17.0096 20.9881C16.7205 20.699 16.4914 20.356 16.3354 19.9785C16.1795 19.6011 16.0998 19.1967 16.1009 18.7886C16.1001 18.3807 16.1801 17.9768 16.3362 17.5998C16.4923 17.2228 16.7215 16.8803 17.0106 16.5917C17.2998 16.3032 17.6432 16.0744 18.0212 15.9183C18.3992 15.7623 18.8043 15.6821 19.2135 15.6825H27.0135C27.4227 15.6823 27.8278 15.7626 28.2058 15.9188C28.5837 16.0749 28.927 16.3039 29.2161 16.5926C29.5051 16.8812 29.7342 17.2238 29.8901 17.6009C30.0461 17.9779 30.1259 18.3819 30.125 18.7897C30.1259 19.1977 30.0461 19.6019 29.8902 19.9791C29.7343 20.3563 29.5053 20.6992 29.2163 20.9881C28.9273 21.277 28.584 21.5063 28.206 21.6628C27.8281 21.8194 27.4228 21.9001 27.0135 21.9004H19.2135Z" fill="#20484F"/>
</svg>
