<svg width="28" height="26" viewBox="0 0 28 26" fill="none" xmlns="http://www.w3.org/2000/svg">
<path d="M24.6665 5.99984H20.6665V3.33317C20.6665 1.85317 19.4798 0.666504 17.9998 0.666504H9.99984C8.51984 0.666504 7.33317 1.85317 7.33317 3.33317V5.99984H3.33317C1.85317 5.99984 0.666504 7.1865 0.666504 8.6665V23.3332C0.666504 24.8132 1.85317 25.9998 3.33317 25.9998H24.6665C26.1465 25.9998 27.3332 24.8132 27.3332 23.3332V8.6665C27.3332 7.1865 26.1465 5.99984 24.6665 5.99984ZM9.99984 3.33317H17.9998V5.99984H9.99984V3.33317ZM24.6665 23.3332H3.33317V20.6665H24.6665V23.3332ZM24.6665 16.6665H3.33317V8.6665H7.33317V11.3332H9.99984V8.6665H17.9998V11.3332H20.6665V8.6665H24.6665V16.6665Z" fill="black"/>
</svg>
